<svg width="100%" height="100%" id="svg" viewBox="0 0 1440 500" xmlns="http://www.w3.org/2000/svg" class="transition duration-300 ease-in-out delay-150"><defs><linearGradient id="gradient" x1="61%" y1="1%" x2="39%" y2="99%"><stop offset="5%" stop-color="#ff22d188"></stop><stop offset="95%" stop-color="#ff983888"></stop></linearGradient></defs><path d="M 0,500 C 0,500 0,166 0,166 C 197.7333333333333,178.8 395.4666666666666,191.6 563,176 C 730.5333333333334,160.4 867.8666666666666,116.4 1009,110 C 1150.1333333333334,103.6 1295.0666666666666,134.8 1440,166 C 1440,166 1440,500 1440,500 Z" stroke="none" stroke-width="0" fill="url(#gradient)" class="transition-all duration-300 ease-in-out delay-150 path-0"></path><defs><linearGradient id="gradient" x1="61%" y1="1%" x2="39%" y2="99%"><stop offset="5%" stop-color="#ff22d1ff"></stop><stop offset="95%" stop-color="#ff9838ff"></stop></linearGradient></defs><path d="M 0,500 C 0,500 0,333 0,333 C 200.93333333333334,298.3333333333333 401.8666666666667,263.66666666666663 564,272 C 726.1333333333333,280.33333333333337 849.4666666666667,331.6666666666667 989,349 C 1128.5333333333333,366.3333333333333 1284.2666666666667,349.66666666666663 1440,333 C 1440,333 1440,500 1440,500 Z" stroke="none" stroke-width="0" fill="url(#gradient)" class="transition-all duration-300 ease-in-out delay-150 path-1"></path></svg>